<svg width="48" height="48" viewBox="0 0 48 48" fill="none" xmlns="http://www.w3.org/2000/svg">
<path d="M34 8L13 18C13 18 13 27.146 13 30C13 30.076 13.017 30.148 13.044 30.218C13.146 30.662 13.525 31 14 31L18.303 32.714C18.483 32.89 18.729 33 19 33C19.553 33 20 32.553 20 32C20 31.8 20 22 20 22L41 11L34 8Z" fill="#FFDA8E"/>
<path d="M45.427 12.104L45.43 12.097L24.43 2.097C24.43 2.097 24.313 2 24 2C23.687 2 23.57 2.097 23.57 2.097L2.57 12.097C2.57 12.097 2.571 12.101 2.572 12.102C2.493 12.136 2 12.404 2 13V35C2 35.397 2.236 35.735 2.573 35.896L2.57 35.902L23.57 45.902L23.573 45.896C23.704 45.959 23.846 46 24 46C24.154 46 24.296 45.959 24.427 45.896L24.43 45.902L45.43 35.902L45.427 35.896C45.764 35.735 46 35.397 46 35V13C46 12.781 45.872 12.316 45.427 12.104ZM35.024 9.357L15 18.697V28.523L12 27.323V17L31.736 7.791L35.024 9.357ZM24 4.107L29.374 6.667L10.7 15.559L5.326 13L24 4.107ZM23 43.416L4 34.368V14.584L10 17.441V28C10 28.421 10.262 28.777 10.63 28.925L10.629 28.929L15.61 30.921C15.388 30.827 15.755 31 16 31C16.553 31 17 30.553 17 30V20.774L23 23.631V43.416ZM24 21.893L18.525 19.286L37.365 10.473L42.674 13L24 21.893ZM44 34.368L25 43.416V23.632L44 14.584V34.368Z" fill="#384D68"/>
</svg>
