<svg width="48" height="48" viewBox="0 0 48 48" fill="none" xmlns="http://www.w3.org/2000/svg">
<path d="M15 21.2049C14.982 21.3709 14.999 21.4259 15 21.2049V21.2049ZM15 21.2049C15.001 21.2029 15.001 21.2009 15.001 21.1989V21.1789C15.001 21.1909 15 21.1929 15 21.2049ZM40.981 21.0479C40.957 20.8189 40.852 20.6189 40.703 20.4649L40.708 20.4599L40.679 20.4309C40.677 20.4299 40.676 20.4279 40.675 20.4269L28.708 8.78388C28.708 8.78388 28.622 8.66788 28.36 8.56888C28.151 8.47688 27.911 8.47388 27.688 8.55988C27.389 8.65788 27.293 8.78388 27.293 8.78388L15.318 20.4339C15.096 20.6389 15.022 20.9929 15 21.1979V43.5659C15 44.0809 15.416 44.4989 15.929 44.4989H40.072C40.585 44.4989 41.001 44.0809 41.001 43.5659C41.001 43.5659 40.981 21.3349 40.981 21.0479Z" fill="#FFDA8E"/>
<path d="M14.001 26.499H27.649L24.276 29.861C23.901 30.234 23.901 30.839 24.276 31.212C24.65 31.585 25.258 31.585 25.633 31.212L30.705 26.159C31.08 25.786 31.08 25.181 30.705 24.808L25.633 19.755C25.258 19.382 24.65 19.382 24.276 19.755C23.901 20.128 23.901 20.733 24.276 21.106L27.679 24.499H14.001C13.448 24.499 13.001 24.946 13.001 25.499C13.001 26.052 13.448 26.499 14.001 26.499ZM11.001 38.499C9.34501 38.499 8.00101 39.842 8.00101 41.499C8.00101 43.156 9.34501 44.499 11.001 44.499C12.657 44.499 14.001 43.156 14.001 41.499C14.001 39.842 12.657 38.499 11.001 38.499ZM11.001 42.499C10.448 42.499 10.001 42.052 10.001 41.499C10.001 40.946 10.448 40.499 11.001 40.499C11.554 40.499 12.001 40.946 12.001 41.499C12.001 42.052 11.554 42.499 11.001 42.499ZM45.704 22.793L26.66 3.79498C26.268 3.40298 25.632 3.40298 25.239 3.79498L15.298 13.711C14.905 14.102 14.905 14.736 15.298 15.127C15.691 15.519 16.325 15.519 16.718 15.127L25.95 5.91998L44.284 24.21C44.677 24.601 45.311 24.601 45.704 24.21C46.097 23.818 46.097 23.185 45.704 22.793ZM40.001 23.499C39.448 23.499 39.001 23.946 39.001 24.499V42.499H33.001V35.499C33.001 34.946 32.554 34.499 32.001 34.499H29.001C28.448 34.499 28.001 34.946 28.001 35.499C28.001 36.052 28.448 36.499 29.001 36.499H31.001V43.499C31.001 44.052 31.448 44.499 32.001 44.499H40.001C40.554 44.499 41.001 44.052 41.001 43.499V24.499C41.001 23.946 40.554 23.499 40.001 23.499ZM22.001 38.499C20.345 38.499 19.001 39.842 19.001 41.499C19.001 43.156 20.345 44.499 22.001 44.499C23.657 44.499 25.001 43.156 25.001 41.499C25.001 39.842 23.657 38.499 22.001 38.499ZM22.001 42.499C21.448 42.499 21.001 42.052 21.001 41.499C21.001 40.946 21.448 40.499 22.001 40.499C22.554 40.499 23.001 40.946 23.001 41.499C23.001 42.052 22.554 42.499 22.001 42.499ZM25.001 34.499H9.85801L7.98901 22.347L7.97101 22.35C7.89601 21.871 7.50101 21.499 7.00101 21.499H3.00101C2.44801 21.499 2.00101 21.946 2.00101 22.499C2.00101 23.052 2.44801 23.499 3.00101 23.499H6.14401L8.01301 35.651L8.03201 35.648C8.10701 36.127 8.50201 36.499 9.00201 36.499H25.002C25.555 36.499 26.002 36.052 26.002 35.499C26.002 34.946 25.554 34.499 25.001 34.499Z" fill="#384D68"/>
</svg>
