<svg width="48" height="48" viewBox="0 0 48 48" fill="none" xmlns="http://www.w3.org/2000/svg">
<path d="M16.034 6.109C16.057 6.237 16.082 6.271 16.034 6.109V6.109ZM37.966 6.109C37.918 6.271 37.943 6.237 37.966 6.109V6.109ZM37 5H17C15.974 5 15.981 5.786 16.032 6.096C16.272 6.817 17.908 11.728 18 12V22C18 26.603 22.444 30 27 30C31.556 30 36 26.603 36 22V12L37.968 6.096C38.019 5.786 38.026 5 37 5ZM37.968 6.096C37.967 6.101 37.967 6.105 37.966 6.11C37.975 6.079 37.985 6.045 38 6L37.968 6.096ZM16.034 6.109C16.033 6.105 16.033 6.1 16.032 6.096C16.013 6.039 16 6 16 6C16.015 6.045 16.025 6.079 16.034 6.109Z" fill="#FFDA8E"/>
<path fill-rule="evenodd" clip-rule="evenodd" d="M12.103 3.471L12.051 3.316L12.056 3.314C12.08 3.389 12.094 3.436 12.103 3.471L14.051 9.316L14.056 9.314C14.141 9.569 14.328 9.768 14.565 9.886C14.203 10.856 14 11.903 14 13V20C14 24.971 19.029 29 24 29C28.971 29 34 24.971 34 20V13C34 11.946 33.811 10.938 33.476 10H41C41.553 10 42 9.553 42 9C42 8.447 41.553 8 41 8H34.387L35.898 3.471C35.907 3.435 35.92 3.388 35.945 3.315L35.95 3.317L35.898 3.471C35.797 3.876 36.573 2 35 2H13C11.426 2 12.202 3.875 12.103 3.471ZM32 20C32 23.866 27.866 27 24 27C20.134 27 16 23.866 16 20V13C16 11.923 16.254 10.909 16.69 10H31.308C31.746 10.909 32 11.923 32 13V20ZM33.613 4L32.279 8H15.721L14.387 4H33.613ZM36 33H12C6.477 33 2 37.478 2 43V45C2 45.553 2.447 46 3 46C3.553 46 4 45.553 4 45V43C4 38.582 7.582 35 12 35H36C40.418 35 44 38.582 44 43V45C44 45.553 44.447 46 45 46C45.553 46 46 45.553 46 45V43C46 37.478 41.523 33 36 33ZM24 21C24.553 21 25 20.553 25 20V16C25 15.447 24.553 15 24 15C23.447 15 23 15.447 23 16V20C23 20.553 23.447 21 24 21ZM28 13C27.447 13 27 13.447 27 14C27 14.553 27.447 15 28 15C28.553 15 29 14.553 29 14C29 13.447 28.553 13 28 13ZM20 15C20.553 15 21 14.553 21 14C21 13.447 20.553 13 20 13C19.447 13 19 13.447 19 14C19 14.553 19.447 15 20 15ZM28 21C27.715 21 27.461 21.123 27.278 21.314C26.549 22.037 25.096 23 24 23C22.896 23 21.427 21.99 20.703 21.266C20.703 21.266 20.525 21 20 21C19.447 21 19 21.447 19 22C19 22.316 19.156 22.587 19.386 22.77C20.488 23.833 22.389 25 24 25C25.656 25 27.625 23.797 28.711 22.711L28.707 22.707C28.889 22.526 29 22.276 29 22C29 21.447 28.553 21 28 21Z" fill="#384D68"/>
</svg>
