<svg width="48" height="48" viewBox="0 0 48 48" fill="none" xmlns="http://www.w3.org/2000/svg">
<path fill-rule="evenodd" clip-rule="evenodd" d="M45.74 37.0359L39.352 30.5079C40.615 28.1869 41.339 25.5179 41.339 22.6739C41.339 13.7429 34.247 6.50293 25.498 6.50293C16.75 6.50293 9.657 13.7429 9.657 22.6739C9.657 25.5149 10.38 28.1819 11.64 30.5009L5.257 37.0179C4.887 37.3949 4.974 38.1849 5.344 38.5619C5.675 38.8999 5.929 38.8449 5.929 38.8449H11.52V44.5519C11.542 44.7619 11.642 44.9909 11.8 45.1529C12.169 45.5299 12.914 45.5899 13.283 45.2129L20.382 37.9669C21.988 38.5279 23.704 38.8459 25.497 38.8459C27.284 38.8459 28.996 38.5299 30.599 37.9729L37.711 45.2429C38.08 45.6209 38.825 45.5609 39.194 45.1829C39.352 45.0219 39.451 44.7919 39.474 44.5809V38.8669H45.065C45.065 38.8669 45.319 38.9219 45.65 38.5839C46.021 38.2049 46.109 37.4139 45.74 37.0359ZM31.635 24.0989C33.932 31.9589 31.699 33.5479 24.939 28.8679C18.121 33.4659 15.91 31.8489 18.304 24.0179C11.792 18.9989 12.658 16.4119 20.898 16.2519C23.692 8.55293 26.439 8.56893 29.137 16.3029C37.374 16.5629 38.207 19.1609 31.635 24.0989Z" fill="#FFDA8E"/>
<path d="M45.721 34.6029L38.867 27.7399C40.222 25.2999 41 22.4939 41 19.5039C41 10.1149 33.389 2.50391 24 2.50391C14.611 2.50391 7 10.1149 7 19.5039C7 22.4899 7.775 25.2939 9.129 27.7329L2.278 34.5829C1.882 34.9789 1.975 35.8109 2.372 36.2069C2.726 36.5609 3 36.5039 3 36.5039H9V42.5039C9.024 42.7249 9.131 42.9659 9.301 43.1359C9.697 43.5319 10.496 43.5949 10.893 43.1989L18.51 35.5809C20.235 36.1699 22.076 36.5049 24 36.5049C25.918 36.5049 27.755 36.1729 29.475 35.5869L37.108 43.2299C37.504 43.6269 38.303 43.5649 38.7 43.1669C38.87 42.9969 38.976 42.7559 39.001 42.5349V36.5269H45.001C45.001 36.5269 45.273 36.5849 45.629 36.2289C46.023 35.8309 46.117 34.9989 45.721 34.6029ZM10.95 40.2679V35.4079C10.925 35.1869 10.843 34.9699 10.674 34.8009C10.339 34.4659 10.068 34.5099 10.068 34.5099L5.207 34.5259L10.254 29.4789C11.869 31.6999 14.003 33.5079 16.484 34.7359L10.95 40.2679ZM23.999 34.5029C15.715 34.5029 8.999 27.7869 8.999 19.5029C8.999 11.2189 15.715 4.50291 23.999 4.50291C32.283 4.50291 38.999 11.2189 38.999 19.5029C38.999 27.7869 32.283 34.5029 23.999 34.5029ZM37.93 34.5289C37.93 34.5289 37.659 34.4849 37.325 34.8199C37.155 34.9899 37.074 35.2069 37.05 35.4279V40.2939L31.502 34.7389C33.986 33.5129 36.123 31.7049 37.739 29.4839L42.793 34.5439L37.93 34.5289ZM28.137 14.3029C25.439 6.56991 22.692 6.55291 19.898 14.2519C11.658 14.4109 10.793 16.9989 17.304 22.0179C14.909 29.8489 17.12 31.4649 23.939 26.8679C30.7 31.5489 32.932 29.9589 30.635 22.0989C37.207 17.1609 36.374 14.5629 28.137 14.3029ZM28.205 20.9289C30.759 28.2529 30.028 28.7669 23.951 23.8739C17.93 28.8399 17.275 28.2779 19.734 20.8789C13.628 17.1849 13.74 16.0819 21.382 16.0819C23.501 9.04391 24.496 9.02291 26.617 16.1119C34.197 16.1119 34.476 17.1599 28.205 20.9289Z" fill="#384D68"/>
</svg>
